# xmcd
#
# Track frame offsets: 
#        150
#        10616
#        39420
#        59416
#        84416
#        101668
#        120964
#        142468
#        161404
#        166608
#        185568
#        204132
#
# Disc length: 2814 seconds
#
# Revision: 0
# Processed by: cddbd v1.5.1PL2 Copyright (c) Steve Scherf et al.
# Submitted via: ExactAudioCopy v0.95a5
#
DISCID=900afc0c
DTITLE=Linard Bardill - Mini Geiss Goes Polkajazz
DYEAR=2006
DGENRE=Blues
TTITLE0=Der Luki
TTITLE1=Was i nid weiss, weiss mini Geiss
TTITLE2=Der Esel vom Martin
TTITLE3=En Tiger uf de Strooss
TTITLE4=Dä Spatz isch frech
TTITLE5=Im Munggeloch
TTITLE6=Nie müed
TTITLE7=Fudiswing
TTITLE8=Kanone
TTITLE9=Was i nid weiss, weiss mini Geiss 2
TTITLE10=En Bär im Keller
TTITLE11=Sunnelied
EXTD=
EXTT0=
EXTT1=
EXTT2=
EXTT3=
EXTT4=
EXTT5=
EXTT6=
EXTT7=
EXTT8=
EXTT9=
EXTT10=
EXTT11=
PLAYORDER=
